<svg xmlns="http://www.w3.org/2000/svg" viewBox="-64 -64 1102 955">
  <path fill="#000" transform="translate(-920.99056 -364.14254)" d="m 1399.571,1189.4603 c -1.611,-0.8401 -7.236,-5.0377 -12.5,-9.328 -42.6637,-34.7716 -104.0841,-67.3848 -163.071,-86.5878 -40.7908,-13.2794 -99.1522,-25.6631 -146,-30.9796 -37.7904,-4.2887 -50.8533,-4.946 -99.5,-5.0061 l -48,-0.059 -3.13626,-2.2368 c -6.91406,-4.9312 -6.36391,21.3162 -6.36219,-303.53284 0.001,-277.17178 0.0973,-293.42034 1.75,-296.70983 0.96165,-1.91403 3.32345,-4.54795 5.24845,-5.85315 l 3.5,-2.37309 30,0.60852 c 16.5,0.33469 31.89708,0.87691 34.21572,1.20493 l 4.21573,0.59639 0.28425,-38.6795 0.2843,-38.6795 3.6525,-3.34637 c 5.0185,-4.59787 9.2759,-5.05224 34.3475,-3.6657 38.8255,2.14718 87.53,9.09831 87.4839,12.48575 -0.01,0.64998 -4.1235,6.51768 -9.1436,13.03933 l -9.1275,11.85754 -3.6064,-0.63859 c -20.4089,-3.61387 -56.5592,-7.5603 -69.3564,-7.57147 L 1029,394 v 276.8517 276.85169 l 15.25,0.69883 c 53.1124,2.43384 103.6785,11.95463 156.75,29.51357 24.2212,8.01367 39.3863,14.21756 62.5,25.56811 48.5039,23.819 94.4837,61.4094 122.8682,100.4498 l 6.1318,8.4338 0.2582,-83.4338 c 0.1421,-45.88852 0.044,-83.9962 -0.2186,-84.6837 -0.6063,-1.58935 -10.7519,-1.63474 -30.2192,-0.13519 -35.2075,2.71199 -58.5767,-4.33939 -89.3204,-26.95134 -10.322,-7.59184 -18.6295,-15.68178 -29.689,-28.91157 -5.1717,-6.18646 -10.6198,-11.8613 -12.107,-12.61077 -1.4872,-0.74947 -6.9059,-1.64821 -12.0416,-1.99721 -16.6565,-1.13191 -29.5505,-5.85404 -42.2461,-15.47167 -15.9272,-12.06573 -20.0912,-18.84074 -52.5766,-85.54338 -31.7528,-65.1985 -34.8079,-73.77514 -34.7765,-97.62887 0.02,-15.3469 0.9568,-20.62378 6.081,-34.26354 3.8595,-10.27307 10.9734,-20.28532 24.3517,-34.27311 21.1731,-22.13763 24.2678,-27.47713 24.3208,-41.96335 0.036,-9.93879 -1.4501,-15.11403 -10.7707,-37.5 -12.4533,-29.91025 -14.8084,-39.187 -14.8512,-58.5 -0.032,-14.45576 1.8058,-24.08327 7.333,-38.41595 9.6581,-25.04426 34.5917,-46.80501 61.3942,-53.58182 18.4552,-4.66624 35.8146,-4.14253 53.078,1.60127 13.7217,4.56543 22.6632,10.07477 33.1028,20.3965 13.2492,13.09957 19.6543,25.00416 25.4518,47.305 8.0163,30.83602 7.534,62.31403 -1.3245,86.43655 -6.7431,18.36204 -19.9447,32.33214 -36.2301,38.33928 -1.5854,0.5848 -1.0672,0.91959 2.5,1.61502 45.4038,8.85161 65.4316,22.21774 89.4244,59.68002 2.5981,4.05673 5.0904,6.98173 5.5384,6.5 0.4479,-0.48173 6.0948,-13.25087 12.5485,-28.37587 6.6035,-15.47614 12.8646,-28.71214 14.3198,-30.27232 5.119,-5.48812 8.2354,-5.54291 24.3249,-0.42766 7.8892,2.50816 18.394,5.76029 23.344,7.22696 4.95,1.46666 24.0938,7.34809 42.5418,13.06984 18.448,5.72175 34.1519,10.40318 34.8976,10.40318 0.7457,0 17.1979,-9.9 36.5606,-22 38.2179,-23.8829 39.3644,-24.38345 45.9326,-20.05366 4.0032,2.63896 5.4901,5.68443 5.532,11.33089 0.036,4.93039 -1.8834,9.75735 -35.8861,90.22277 l -10.9869,26 8.3602,1.13842 c 19.0698,2.59674 33.7879,10.39205 47.9343,25.38798 6.1335,6.50183 29.3157,40.56119 65.1544,95.7251 7.0087,10.78805 8.3946,12.37193 11.6024,13.25971 C 1688.8921,832.04883 1783.2747,848 1785.6651,848 1786.7744,848 1787,809.60551 1787,620.85105 V 393.70209 l -14.25,0.68885 c -56.063,2.71009 -125.4813,16.41793 -179.25,35.396 -71.3297,25.17637 -127.4211,61.1503 -165.2466,105.97992 -5.2663,6.24148 -10.8304,11.99727 -12.3646,12.79064 -4.3279,2.23806 -11.992,1.84751 -15.9388,-0.81221 -1.8402,-1.24009 -6.8152,-6.52759 -11.0555,-11.75 -10.2062,-12.56983 -28.5278,-30.34071 -43.5778,-42.26776 -13.8745,-10.99552 -12.4316,-7.92633 -14.3784,-30.58255 -0.5839,-6.79525 -0.8243,-12.59235 -0.5342,-12.88242 1.7131,-1.71305 29.1576,17.21338 46.0959,31.78884 8.7587,7.53687 23.3665,22.13403 28.7244,28.70347 l 2.6547,3.25487 15.8104,-15.83406 c 29.9732,-30.01797 57.8105,-49.4198 104.2122,-72.63316 19.9838,-9.99731 33.2035,-15.57918 55.0983,-23.2648 18.993,-6.66702 55.967,-17.36165 73.5,-21.25973 38.0017,-8.44883 88.8523,-15.01753 128.5,-16.59916 18.8011,-0.75001 23.081,-0.0307 27.5476,4.62978 l 2.9524,3.0805 0.5,38.18545 0.5,38.18544 3.5,-0.23329 c 1.925,-0.12831 17.225,-0.51194 34,-0.85251 l 30.5,-0.61922 3.5,2.37244 c 1.925,1.30485 4.2868,3.93848 5.2484,5.85251 1.6528,3.28958 1.7485,19.5732 1.7485,297.48007 0,277.9264 -0.096,294.1875 -1.7485,297.4289 -0.9616,1.8859 -3.019,4.3609 -4.572,5.5 -2.7609,2.025 -3.884,2.0719 -50.5,2.1085 -29.9802,0.024 -52.8728,0.5055 -61.6764,1.2984 -135.3433,12.1899 -230.9999,42.0442 -315.4646,98.4561 -15.5856,10.4092 -25.7727,17.7567 -35.1294,25.3374 -3.6268,2.9383 -8.2248,6.0238 -10.2179,6.8566 -4.6496,1.9427 -12.3661,1.9304 -16.1171,-0.026 z m -33.1891,-61.7103 c -2.9475,-5.0052 -15.6804,-21.0282 -23.6413,-29.75 C 1300.877,1052.1346 1236.0022,1015.7627 1161,996.10765 1117.4687,984.69984 1060.4509,977 1019.5065,977 c -9.2292,0 -13.7566,-1.32228 -17.0065,-4.96693 -1.9856,-2.22679 -2.0036,-4.01491 -2.5,-247.88802 L 999.5,478.5 l -5,-0.69529 c -2.75,-0.38241 -13.6625,-1.01504 -24.25,-1.40584 l -19.25,-0.71055 -0.10636,52.40584 c -0.57613,283.86166 -0.62698,441.61665 -0.15083,467.97972 l 0.57026,31.57392 33.59347,0.059 c 46.67156,0.082 77.78456,2.5047 127.03646,9.891 62.6244,9.3917 123.4339,25.973 171.0294,46.6355 24.7629,10.7502 61.6338,30.0983 77.0169,40.4147 7.0951,4.7581 7.4771,4.9435 6.3926,3.1019 z m 99.2181,-8.3204 c 97.6575,-58.7809 228.0295,-91.4243 365.15,-91.4285 H 1865 v -60.41821 c 0,-33.23002 0.2731,-61.13002 0.607,-62 1.0581,-2.75731 -1.1022,-1.70634 -2.9611,1.44059 -8.3955,14.21232 -27.2711,35.27393 -38.3339,42.77319 -5.838,3.95746 -6.2219,4.46371 -6.7876,8.94959 -1.0421,8.26456 -2.4718,12.03278 -5.5472,14.62058 -3.5932,3.02345 -4.8303,3.18688 -34.4772,4.55494 -95.969,4.4285 -186.7191,31.60462 -251,75.16482 -24.4045,16.5378 -52.4473,42.2058 -67.6429,61.9145 -6.9804,9.0536 -10.38,14 -9.6221,14 0.2558,0 7.62,-4.3067 16.365,-9.5704 z M 1435.4723,1096.5 c 9.7668,-12.243 33.6557,-36.2536 46.624,-46.8613 38.9437,-31.8553 81.6386,-54.58996 135.4037,-72.10152 12.65,-4.12017 25.8795,-8.30033 29.3989,-9.28925 l 6.399,-1.79803 -12.2794,-14.30584 c -6.7537,-7.86821 -13.2848,-14.76389 -14.5135,-15.32373 -1.518,-0.69165 -15.8193,-0.67159 -44.6195,0.0626 -62.6167,1.59622 -143.3453,4.12172 -151.6355,4.74374 l -7.25,0.54398 0.032,85.16465 0.032,85.1647 2.2157,-3 c 1.2187,-1.65 5.8056,-7.5 10.1932,-13 z M 1697.5,956.46017 c 11.7663,-2.26426 44.3991,-6.29707 57.2905,-7.08004 6.1652,-0.37445 11.2095,-0.99046 11.2095,-1.36891 0,-1.18448 -23.0897,-11.66761 -32,-14.52856 -11.8919,-3.81828 -19.5396,-8.0816 -25.9795,-14.48266 -5.2218,-5.19018 -15.6364,-20.66858 -98.5719,-146.5 -20.2479,-30.72035 -25.9018,-37.16847 -37.6034,-42.88496 -12.6238,-6.16702 -26.1309,-6.81139 -41.3452,-1.97242 -10.8716,3.45774 -106.5799,51.01075 -197.028,97.89405 -21.4655,11.12648 -46.7894,24.1157 -56.2755,28.86493 -15.4881,7.75422 -17.145,8.82604 -16.2447,10.50841 2.1774,4.06844 21.8235,23.54102 29.9458,29.68132 10.4196,7.87691 25.7724,15.67355 36.6024,18.58777 6.5592,1.76499 10.7916,2.15383 23.5,2.15897 14.1005,0.006 16.5415,-0.26903 27.0347,-3.04284 21.4986,-5.68297 23.6183,-7.06445 96.3499,-62.79523 22.969,-17.6 46.2692,-35.42838 51.7783,-39.61861 15.6706,-11.919 20.2136,-12.1923 29.0716,-1.74888 2.5039,2.95212 22.263,26.03231 43.9091,51.28932 36.4316,42.50914 59.7009,69.8258 76.9447,90.32817 7.9104,9.40533 7.7186,9.34521 21.4117,6.71017 z m 111.2828,-31.50949 c 4.2189,-2.1082 8.3576,-5.44924 13.4097,-10.82518 7.7108,-8.20503 32.4058,-42.45911 37.0363,-51.37267 2.547,-4.90277 4.4849,-11.39491 3.6412,-12.19861 -0.9258,-0.88204 -11.4853,1.58085 -16.3744,3.81917 -2.9796,1.36409 -9.8666,5.65668 -15.3044,9.53908 -11.8137,8.43447 -18.483,11.63022 -27.1612,13.01491 -8.265,1.31876 -16.0914,0.45169 -59.03,-6.53984 -18.425,-3.00007 -35.4493,-5.73078 -37.8317,-6.06823 l -4.3317,-0.61355 3.7512,5.89712 c 10.6102,16.6799 19.6903,29.5332 21.8745,30.96435 1.3458,0.88181 6.8548,2.92274 12.2423,4.5354 17.7966,5.32713 28.181,9.6971 39.4565,16.60413 11.8018,7.22935 19.011,8.04642 28.6217,3.24392 z M 1516,909.99972 c 77.6882,-2.03304 86,-2.28959 86,-2.65443 0,-0.20707 -10.5626,-12.71824 -23.4725,-27.80261 -28.0733,-32.80187 -28.385,-33.04403 -42.5275,-33.03992 -12.0321,0.004 -12.0381,0.007 -37.1248,19.64122 -10.7911,8.44581 -28.2275,22.07131 -38.7477,30.27888 -10.5201,8.20757 -19.1275,15.09713 -19.1275,15.31013 0,0.213 8.6625,0.12506 19.25,-0.19541 10.5875,-0.32048 35.675,-1.01252 55.75,-1.53786 z m -278.6561,-67.9124 c 10.5936,-3.70569 135.1615,-68.41349 143.7236,-74.65838 6.7614,-4.93148 13.4793,-12.52565 14.9069,-16.85122 1.5506,-4.69866 0.7941,-11.07137 -1.713,-14.42936 -3.6452,-4.88243 -7.052,-6.65522 -12.5874,-6.55012 -5.2421,0.0995 -10.5629,1.98897 -94.674,33.61912 -52.9149,19.89877 -56.2046,20.7846 -62.632,16.86537 -3.5678,-2.17554 -10.3992,-14.99148 -24.8306,-46.58273 -4.7737,-10.45 -10.6983,-23.35869 -13.1657,-28.68597 -5.2579,-11.35177 -5.2385,-15.13267 0.1048,-20.48516 5.4058,-5.41497 15.253,-5.46148 20.2574,-0.0957 1.1628,1.24675 8.7428,16.44182 16.8445,33.76682 8.1017,17.325 14.8962,31.69777 15.0988,31.93948 0.2027,0.24172 3.6207,-0.60203 7.5956,-1.87499 7.061,-2.26126 61.8577,-22.89623 72.6799,-27.36932 l 5.4526,-2.25372 10.4014,-23.61885 10.4015,-23.61885 -13.4929,-20.35188 c -7.421,-11.19353 -15.7758,-22.87984 -18.5661,-25.96959 -11.0961,-12.28671 -26.8105,-19.76409 -49.9901,-23.78686 -24.3261,-4.22175 -34.8414,-10.28438 -41.7922,-24.09542 -4.9107,-9.75728 -4.1781,-21.88992 1.5052,-24.93157 1.0183,-0.54497 6.0762,-1.90602 11.2397,-3.02456 25.7049,-5.56828 33.3081,-12.18874 38.8284,-33.80955 6.8827,-26.95683 3.2753,-57.87599 -9.6203,-82.4571 -9.9829,-19.02904 -30.3972,-31.02555 -52.8604,-31.0636 -10.3788,-0.0176 -16.9841,1.55061 -27.3823,6.50095 -12.2236,5.81934 -22.2194,15.99336 -28.3683,28.87399 -4.965,10.40067 -6.3559,15.26385 -7.3141,25.57332 -1.1746,12.63787 1.5437,23.59599 13.0351,52.54925 9.6781,24.38431 11.9743,33.61899 12.0072,48.28887 0.022,9.81112 -0.3979,13.36345 -2.3022,19.47478 -4.512,14.48081 -8.3031,20.1244 -26.7926,39.88505 -7.225,7.72169 -14.7245,16.65392 -16.6657,19.8494 -12.0159,19.78042 -12.0993,40.90653 -0.2701,68.46793 8.6001,20.03789 50.5881,103.98814 55.7305,111.42688 5.8183,8.41647 10.427,12.75226 17.8486,16.79159 10.5638,5.74954 25.5334,6.82811 37.3583,2.69169 z m 585.949,-6.97467 c 11.2152,-8.37265 21.869,-12.58995 36.8409,-14.58337 4.1893,-0.55779 4.6928,-0.91251 5.25,-3.69812 C 1865.7227,815.13652 1866,737.68844 1866,644.7243 V 475.69861 l -19.75,0.68755 c -10.8625,0.37816 -22,1.00847 -24.75,1.4007 l -5,0.71314 v 155 c 0,156.43279 0.2674,205.5 1.1198,205.5 0.2563,0 2.8092,-1.74931 5.6731,-3.88735 z m -383.8431,-95.72303 c 10.0206,-5.23037 13.1415,-7.37019 14.9493,-10.25 2.9668,-4.72582 7.1696,-14.18449 19.6128,-44.13962 5.5974,-13.475 12.6401,-30.28196 15.6504,-37.3488 3.0104,-7.06685 5.2153,-13.10693 4.8998,-13.42241 -1.5936,-1.59358 -90.8605,-29.34931 -91.5935,-28.47914 -0.3476,0.41269 -4.5103,9.75035 -9.2502,20.75035 -4.74,11 -14.2492,33.02906 -21.1315,48.95347 -6.8823,15.92441 -12.334,29.13275 -12.1149,29.35188 0.2191,0.21913 2.7901,-0.43493 5.7132,-1.45347 3.9808,-1.38705 8.2013,-1.85188 16.8148,-1.85188 10.5993,0 11.9516,0.22165 17.2654,2.82989 12.1829,5.9799 21.3115,19.16495 23.8305,34.42011 0.6585,3.9875 1.5329,7.25 1.9433,7.25 0.4104,0 6.4451,-2.97467 13.4106,-6.61038 z M 1507,706.44584 c 6.875,-3.14664 13.0124,-6.22172 13.6387,-6.8335 0.6263,-0.61179 3.8573,-7.63734 7.18,-15.61234 3.3226,-7.975 11.036,-26.37421 17.1408,-40.88713 6.1048,-14.51292 10.8901,-26.59657 10.6342,-26.85255 -0.3523,-0.35222 -28.7557,16.68951 -30.418,18.25041 -0.2434,0.22855 -29.6019,69.21928 -32.9425,77.41288 -0.6828,1.67469 -1.6199,2.02233 14.7668,-5.47777 z"/>
</svg>